<?xml version="1.0" encoding="utf-8"?>
<!-- Generator: Adobe Illustrator 27.1.0, SVG Export Plug-In . SVG Version: 6.00 Build 0)  -->
<svg version="1.1" id="Capa_1" xmlns="http://www.w3.org/2000/svg" xmlns:xlink="http://www.w3.org/1999/xlink" x="0px" y="0px"
	 viewBox="0 0 1000 784" style="enable-background:new 0 0 1000 784;" xml:space="preserve">
<style type="text/css">
	.st0{fill:#F2F6FF;}
	.st1{fill:#D6E2FF;}
	.st2{fill:none;stroke:#FEFEFE;stroke-width:5;stroke-miterlimit:10;}
	.st3{fill:#EBF1FF;}
	.st4{fill:#FFFFFF;}
	.st5{fill:none;stroke:#EBF1FF;stroke-miterlimit:10;}
	.st6{fill:#C1CCFF;}
	.st7{fill:none;stroke:#F2727C;stroke-width:3;stroke-miterlimit:10;}
	.st8{fill:#382B71;}
	.st9{font-family:'Montserrat-Bold';}
	.st10{font-size:14.5129px;}
	.st11{fill:none;stroke:#D6E2FF;stroke-width:0.5;stroke-miterlimit:9.9998;}
	.st12{fill:none;stroke:#D6E2FF;stroke-width:0.5;stroke-miterlimit:10;}
	.st13{fill:#93A6FF;}
	.st14{fill:#DBE3FF;}
	.st15{clip-path:url(#SVGID_00000056419190805675980560000018188715836015737496_);}
	.st16{fill:#6975ED;}
	.st17{opacity:0.2;fill:none;stroke:#FFFFFF;stroke-miterlimit:10;enable-background:new    ;}
	.st18{fill:#0C0A0B;}
	.st19{fill:none;stroke:#0C0A0B;stroke-width:0.75;stroke-miterlimit:10;}
	.st20{fill:#FFA1A8;}
	.st21{fill:#9B646A;}
	.st22{fill:#A0606E;}
	.st23{fill:#FBCA8C;}
	.st24{fill:#FF848E;}
	.st25{fill:none;stroke:#0C0A0B;stroke-width:0.75;stroke-linecap:round;stroke-miterlimit:10;}
	.st26{fill:#F2727C;}
	.st27{clip-path:url(#SVGID_00000060742540153348499100000012509649975603784095_);}
	.st28{fill:#FE7682;}
	.st29{fill:none;stroke:#FBCA8C;stroke-width:0.75;stroke-linecap:round;stroke-miterlimit:10;}
	.st30{fill:none;stroke:#382B71;stroke-width:0.75;stroke-miterlimit:10;}
	.st31{fill:#FEFEFE;}
	.st32{fill:none;stroke:#382B71;stroke-width:0.75;stroke-miterlimit:9.9999;}
</style>
<g id="OBJECTS">
	<g>
		<path class="st0" d="M710.2,246.8v-37.4l-22.7-3.8c-1.2-3.6-2.6-7.1-4.3-10.4l13.3-18.8L670.1,150l-18.8,13.3
			c-3.3-1.7-6.8-3.1-10.4-4.3l-3.8-22.7h-18.7h-18.7l-3.8,22.7c-3.6,1.2-7.1,2.6-10.4,4.3L566.6,150l-26.4,26.4l13.3,18.8
			c-1.7,3.3-3.1,6.8-4.3,10.4l-22.7,3.8v37.4l22.7,3.8c1.2,3.6,2.6,7.1,4.3,10.4l-13.3,18.8l26.4,26.4l18.8-13.3
			c3.3,1.7,6.8,3.1,10.4,4.3l3.8,22.7h18.7H637l3.8-22.7c3.6-1.2,7.1-2.6,10.4-4.3l18.8,13.3l26.4-26.4l-13.3-18.8
			c1.7-3.3,3.1-6.8,4.3-10.4L710.2,246.8z M618.3,284.9c-31.3,0-56.8-25.4-56.8-56.8s25.4-56.8,56.8-56.8
			c31.3,0,56.8,25.4,56.8,56.8S649.7,284.9,618.3,284.9z"/>
		<path class="st1" d="M618.3,277c-27,0-48.9-21.9-48.9-48.9s21.9-48.9,48.9-48.9c27,0,48.9,21.9,48.9,48.9S645.3,277,618.3,277z"/>
		<polyline class="st2" points="603.2,228.6 613,238.4 633.5,217.9 		"/>
	</g>
	<g>
		<g>
			<path class="st3" d="M310.4,605.3h82.8c78.8,0,142.6-63.8,142.6-142.6l0,0c0-78.8-63.8-142.6-142.6-142.6h-82.8
				c-78.8,0-142.6,63.8-142.6,142.6l0,0C167.8,541.5,231.7,605.3,310.4,605.3z"/>
			<polygon class="st3" points="530.6,606.5 512.6,564.6 494.5,522.7 470.7,546.6 446.8,570.4 488.7,588.5 			"/>
		</g>
	</g>
	<g>
		<polyline class="st4" points="378.1,315.5 378.1,141.2 505.7,141.2 505.7,324.2 409.9,324.2 		"/>
		<g>
			<rect x="391.1" y="177.7" class="st5" width="28.6" height="28.6"/>
			<g>
				<rect x="433.5" y="184.4" class="st6" width="39.5" height="3.8"/>
				<rect x="433.5" y="195.7" class="st6" width="15.8" height="3.8"/>
				<rect x="453.5" y="195.7" class="st6" width="26.2" height="3.8"/>
				<rect x="479.7" y="184.4" class="st6" width="16.5" height="3.8"/>
			</g>
			<path class="st7" d="M396.1,187.9c3.1,1.9,6.1,3.8,9.2,5.7c4.6-8.5,10.7-16.5,17.6-23.3"/>
			<rect x="391.1" y="225.6" class="st5" width="28.6" height="28.6"/>
			<g>
				<rect x="433.5" y="232.4" class="st6" width="39.5" height="3.8"/>
				<rect x="433.5" y="243.6" class="st6" width="15.8" height="3.8"/>
				<rect x="453.5" y="243.6" class="st6" width="26.2" height="3.8"/>
				<rect x="479.7" y="232.4" class="st6" width="16.5" height="3.8"/>
			</g>
			<path class="st7" d="M396.1,235.9c3.1,1.9,6.1,3.8,9.2,5.7c4.6-8.5,10.7-16.5,17.6-23.3"/>
			<rect x="391.1" y="273.5" class="st5" width="28.6" height="28.6"/>
			<g>
				<rect x="433.5" y="280.3" class="st6" width="39.5" height="3.8"/>
				<rect x="433.5" y="291.6" class="st6" width="15.8" height="3.8"/>
				<rect x="453.5" y="291.6" class="st6" width="26.2" height="3.8"/>
				<rect x="479.7" y="280.3" class="st6" width="16.5" height="3.8"/>
			</g>
			<path class="st7" d="M396.1,283.8c3.1,1.9,6.1,3.8,9.2,5.7c4.6-8.5,10.7-16.5,17.6-23.3"/>
		</g>
		<g>
			<text transform="matrix(1 0 0 1 414.3389 163.3721)" class="st8 st9 st10">ETHICS</text>
		</g>
		<g>
			<path class="st8" d="M469.9,145.3h-56c-2.4,0-4.3-1.9-4.3-4.3v-5.5c0-2.4,1.9-4.3,4.3-4.3h56c2.4,0,4.3,1.9,4.3,4.3v5.5
				C474.2,143.4,472.3,145.3,469.9,145.3z"/>
			<path class="st8" d="M441.9,118.7c-5.4,0-9.8,4.4-9.8,9.8v9.8h19.6v-9.8C451.7,123.1,447.3,118.7,441.9,118.7z M441.9,131.2
				c-2.1,0-3.8-1.7-3.8-3.8c0-2.1,1.7-3.8,3.8-3.8s3.8,1.7,3.8,3.8C445.7,129.5,444,131.2,441.9,131.2z"/>
		</g>
	</g>
	<g>
		<g>
			<g>
				
					<ellipse transform="matrix(0.1562 -0.9877 0.9877 0.1562 92.3243 810.5482)" class="st11" cx="520.6" cy="351.2" rx="58.2" ry="58.2"/>
			</g>
			<g>
				<ellipse class="st12" cx="520.6" cy="351.2" rx="37.4" ry="58.2"/>
			</g>
			<path class="st12" d="M568.3,318c-13.6,4.2-30.1,6.6-47.8,6.6c-17.7,0-34.2-2.4-47.8-6.6"/>
			<path class="st12" d="M472.8,384.5c13.6-4.2,30.1-6.6,47.8-6.6c17.6,0,33.9,2.4,47.5,6.5"/>
			<line class="st12" x1="578.8" y1="351.2" x2="462.4" y2="351.2"/>
			<line class="st12" x1="520.6" y1="293" x2="520.6" y2="409.4"/>
		</g>
	</g>
	<path class="st13" d="M545.4,356.1V346l-6.1-1c-0.3-1-0.7-1.9-1.2-2.8l3.6-5.1l-7.1-7.1l-5.1,3.6c-0.9-0.5-1.8-0.9-2.8-1.2l-1-6.1
		h-5h-5l-1,6.1c-1,0.3-1.9,0.7-2.8,1.2l-5.1-3.6l-7.1,7.1l3.6,5.1c-0.5,0.9-0.9,1.8-1.2,2.8l-6.1,1v10.1l6.1,1
		c0.3,1,0.7,1.9,1.2,2.8l-3.6,5.1l7.1,7.1l5.1-3.6c0.9,0.5,1.8,0.9,2.8,1.2l1,6.1h5h5l1-6.1c1-0.3,1.9-0.7,2.8-1.2l5.1,3.6l7.1-7.1
		l-3.6-5.1c0.5-0.9,0.9-1.8,1.2-2.8L545.4,356.1z M520.6,361.2c-5.6,0-10.1-4.5-10.1-10.1S515,341,520.6,341
		c5.6,0,10.1,4.5,10.1,10.1S526.2,361.2,520.6,361.2z"/>
	<g>
		<g>
			<path class="st14" d="M641.9,606.2h69.9c66.5,0,120.4-53.9,120.4-120.4l0,0c0-66.5-53.9-120.4-120.4-120.4h-69.9
				c-66.5,0-120.4,53.9-120.4,120.4l0,0C521.5,552.3,575.4,606.2,641.9,606.2z"/>
			<polygon class="st14" points="539.3,622.7 606.7,582.5 583.7,564.9 560.7,547.2 			"/>
		</g>
	</g>
	<g>
		<g>
			<g>
				<defs>
					<path id="SVGID_1_" d="M641.6,606.2h69.9c66.5,0,120.4-53.9,120.4-120.4l0,0c0-66.5-53.9-120.4-120.4-120.4h-69.9
						c-66.5,0-120.4,53.9-120.4,120.4l0,0C521.2,552.3,575.1,606.2,641.6,606.2z"/>
				</defs>
				<clipPath id="SVGID_00000059291914854525344550000003550945095556202429_">
					<use xlink:href="#SVGID_1_"  style="overflow:visible;"/>
				</clipPath>
				<g style="clip-path:url(#SVGID_00000059291914854525344550000003550945095556202429_);">
					<polygon class="st16" points="699,479.5 722.6,605.6 788.8,605.6 762.4,479.5 					"/>
					<polygon class="st16" points="651.4,479.5 663.6,605.6 737,605.6 716.2,479.5 					"/>
					<line class="st17" x1="708.7" y1="535.8" x2="714.1" y2="605.6"/>
					<path class="st18" d="M729.1,605.6L720,537c0,0-12.3-8.3-21-14.9C699,522.2,703.8,573.5,729.1,605.6z"/>
					<line class="st17" x1="750.6" y1="479.5" x2="775.2" y2="605.6"/>
					<line class="st19" x1="652.2" y1="487.9" x2="764.2" y2="487.9"/>
					<path class="st19" d="M676.5,479.5c0,0,7.7,27.5,20.2,35.2l-6.5-35.2"/>
					<line class="st19" x1="729.1" y1="479.5" x2="731.5" y2="493.4"/>
					<line class="st19" x1="659" y1="479.5" x2="661.4" y2="493.4"/>
				</g>
			</g>
		</g>
		<g>
			<path class="st18" d="M636.2,266.9c0,0-15-10.4-17.3-21.6c-1.3-6.6,9.8-17.3,9.8-17.3s-5-12-3.5-14c1.5-2,25,4.5,25,4.5
				s1.5-6.5,3.6-7.3c2.1-0.8,23.8,11.1,23.8,11.1s0.7-6.6,2-6.7c1.3-0.2,2.8,7.7,2.8,7.7s8.7-5,11.1-3.9c2.4,1.1-6.1,8.3-6.1,8.3
				s8.6,1,9,3.1c0.4,2.1-4.2,37.2-4.2,37.2L636.2,266.9z"/>
			<path class="st18" d="M591.7,464c0,0,25.6,11.8,53.2,3.3C644.9,467.3,624.2,450.2,591.7,464z"/>
			<path class="st20" d="M608.6,556.6l21,0l10.8-104.9c0,0-15.3-18.9-22.3-19.8c0,0-8.8,5.2-10.7,12.6
				C605.5,451.8,608.6,556.6,608.6,556.6z"/>
			<path class="st8" d="M625.4,318c-16.6,2.2-25.1,132.2-25.1,132.2l44.4,6.6C644.7,456.8,639.6,316.1,625.4,318z"/>
			<path class="st6" d="M644.9,467.3c0,0,7.1-6.9,0.5-13.3c-6.5-6.3-42.5-6.3-42.5-6.3s-11,0.7-7.7,9c0,0-5.3,1.5-3.4,7.4
				C591.7,464,623.2,453.3,644.9,467.3z"/>
			<path class="st8" d="M762.8,479.5H651.7c0,0-14.8-12.5-14-20.2c1.2-11.2-1.6-84.1-12.3-141.2c-0.6-3.2,34.7-4.1,34.7-4.1
				l26.7,1.5c12.8,2.2,35.3,8.8,43.1,19.9c5.5,7.8,21.7,82.4,31.1,122.1c0,0,7.6,7.3,9.1,12.5C771.5,475.2,762.8,479.5,762.8,479.5z
				"/>
			<path class="st19" d="M629.6,344.4c0,0,6.9,56.2,7.6,82.7"/>
			<path class="st19" d="M653.4,314.2c0,0,2.4,36.9,24.5,52.6"/>
			<path class="st18" d="M720.4,432c15.4-25,6.5-46.2,6.5-46.2l-10.3,41.3L720.4,432z"/>
			<path class="st20" d="M586.7,414c0,0-19.8-5.4-24.8-5.3s-9.5,5.9-9.5,5.9s-14.8,15.1-16,17.5c-3.6,6.9,3.1,3.7,3.1,3.7
				s-1.4,3.7,2.7,4c3.5,0.2,5.1,0.2,5.1,0.2s-0.5,1.8,2.7,2.9c3.2,1.1,23.6,2.9,34.6-9L586.7,414z"/>
			<path class="st8" d="M708.9,332.6c-8.2-1.4-25.9,76.1-25.9,76.1s25.3,21.1,29.3,30.3C712.3,439,751.1,339.5,708.9,332.6z"/>
			<path class="st18" d="M673.7,408.7c0,0,9.7,31.3,40.2,35C713.9,443.8,703.1,410.9,673.7,408.7z"/>
			<path class="st20" d="M584.6,434l2.1-20l107.1-3.7c0,0,17.7,16.7,18.1,23.7c0,0-5.8,8.4-13.3,9.8
				C691.1,445.1,584.6,434,584.6,434z"/>
			<path class="st6" d="M673.7,408.7c0,0-0.2-9.9,9-9.8c9.1,0.1,34.7,25.4,34.7,25.4s7.4,8.2-0.8,11.9c0,0,2.7,4.8-2.7,7.7
				C713.9,443.8,699,414.1,673.7,408.7z"/>
			<path class="st19" d="M684.8,399.2c0,0,16.6-57.6,19.7-64.4c1.8-4,7.5-3.6,9.4-2.3"/>
			<path class="st19" d="M741,450.2c0,0,14.5,1.1,20,7.3"/>
			<path class="st21" d="M673.6,616.3l6,69.8c0,0-67.4,23.5-120.1,1.7l-0.6-66.5L673.6,616.3z"/>
			<path class="st18" d="M676.2,646.2l0.5,6c0,0-48.6,17.1-58.8,17c-10.2-0.1-58.7-11.9-58.7-11.9l-0.1-9.4L676.2,646.2z"/>
			<polygon class="st22" points="635.5,572.1 584.4,575.5 575.9,602 585,604.4 588.1,582.5 630.3,578.4 640.5,603.6 650.2,602.5 			
				"/>
			<path class="st22" d="M676.2,646.2l-4.2-47.9l-112.6,1.5l-0.2,48c0,0,40.7,17.1,59.4,15.9C637.3,662.5,676.2,646.2,676.2,646.2z"
				/>
			<path class="st23" d="M627.1,656.7l1.1,13.1c0,0-7,6.1-13.9,1.2l-1-13.9L627.1,656.7z"/>
			<polygon class="st18" points="559.4,599.8 551.4,603.1 547.2,683.2 559.5,687.8 			"/>
			<path class="st20" d="M608.6,556.6c0,0-6.5,10.2-7.3,11.5c-0.8,1.3,4.5,15.5,7.6,15.9c3,0.4,3.3-10.3,3.3-10.3l14.7-1
				c0,0,6-7.7,2.7-16.1L608.6,556.6z"/>
			<path class="st20" d="M612.1,573.7c0,0,1.7-3,3.9-3.9s4.2,3.3,4.2,3.3s0.4-4.2,1.5-4s3,2.4,3,2.4s1.2-2.6,2.3-1.9
				c1.2,0.7,1.4,12.2-0.4,12.6s-4.3-1.4-4.3-1.4s-1.2,2-2.8,2.1c-1.6,0.1-2.5-1.9-2.5-1.9s-3.1,3.1-4.1,2.5
				C612.1,583,609.8,576.5,612.1,573.7z"/>
			<path class="st19" d="M615.6,564.6c0,0-2.4,5.6-5,6.7c0,0,2.2,5,0.9,8.5"/>
			<path class="st19" d="M613.1,568.8c0,0,4.6,0.3,4.3,2.9"/>
			<path class="st19" d="M617.2,572.3c0,0,1.4-3.7,2.9-4.2c1.5-0.4,2.3,3.7,2.3,3.7"/>
			<path class="st19" d="M622.2,570.9c0,0,1.1-3,2.8-3.2c1.6-0.2,2.6,2.4,2.7,3.7"/>
			<path class="st19" d="M694.5,316.3c0,0-7,41.5-20.8,56.1"/>
			<g>
				<g>
					<path class="st13" d="M660.2,314.8c0,0,0.3,21.8,16.6,42.2c0,0,8.5-25.8,9.9-41.6l-13.2,0.8L660.2,314.8z"/>
					<path class="st24" d="M686.8,315.4l-2.3-47.8l-24.1,2.6l-0.1,44.6c0,0,2,9,13.3,9C684.8,323.8,686.8,315.4,686.8,315.4z"/>
					<g>
						<g>
							<path class="st18" d="M660.3,305.9l0-8.7c0,0,10.7-0.2,19-12.1C679.3,285.1,676.2,303.9,660.3,305.9z"/>
						</g>
					</g>
				</g>
			</g>
			<g>
				<g>
					<path class="st24" d="M632.2,267.8c0.1,2,0.3,3.9,0.7,5.8c0.6,3.2,1.6,6.3,3,9.2c3.6,7.5,9.9,13.3,18.8,14.3
						c9.7,1.2,19.2-4.3,24.6-12.6c9.8-15,12.3-43.4-5.1-53.6c-1.9-1.1-3.9-1.9-6-2.4c-9.6-2.1-19.9,2.9-26.5,10.6
						C635,247,631.8,257.5,632.2,267.8z"/>
				</g>
			</g>
			<path class="st25" d="M659.2,261.4c-1.9-1.4-4.4-1.8-6.7-1.3"/>
			<path class="st25" d="M645.9,261.4c-1.9-1.4-4.4-1.8-6.7-1.3"/>
			<g>
				<path class="st18" d="M653.1,266.4c0,1.1,0.9,2.1,2,2.1c1.1,0,2.1-0.9,2.1-2c0-1.1-0.9-2.1-2-2.1
					C654.1,264.4,653.1,265.3,653.1,266.4z"/>
			</g>
			<g>
				<path class="st18" d="M640.5,266.1c0,1.1,0.9,2.1,2,2.1c1.1,0,2.1-0.9,2.1-2c0-1.1-0.9-2.1-2-2.1
					C641.5,264,640.6,264.9,640.5,266.1z"/>
			</g>
			<g>
				<path class="st18" d="M647.3,274.4c-0.3,1-1.4,1.7-2.3,2.1c-0.5,0.2-1,0.4-1.4,0.6c-0.2,0.1-0.4,0.2-0.5,0.3c-0.1,0,0,0.1,0,0
					c0,0,0,0.1,0,0.2c0.1,0.2,0.4,0.5,0.8,0.7c0.4,0.2,0.9,0.4,1.3,0.6c0.9,0.3,1.9,0.6,2.9,0.9c-1,0.1-2.1,0.1-3.1-0.1
					c-0.5-0.1-1.1-0.2-1.6-0.5c-0.5-0.3-1.1-0.6-1.3-1.4c0-0.2-0.1-0.3,0-0.6c0.1-0.3,0.2-0.5,0.4-0.6c0.3-0.2,0.6-0.3,0.8-0.4
					c0.5-0.2,1-0.3,1.5-0.4C645.7,275.5,646.7,275.3,647.3,274.4z"/>
			</g>
			<path class="st26" d="M656.6,276.7c-0.4,2.8,2.6,5.5,6.7,6c4,0.5,7.6-1.3,8-4.1c0.4-2.8-2.6-5.5-6.7-6
				C660.5,272.1,656.9,273.9,656.6,276.7z"/>
			<path class="st26" d="M632.9,273.6c0.6,3.2,1.6,6.3,3,9.2c2.5-1.4,3.9-3.7,3.4-5.8C638.6,274.8,636,273.5,632.9,273.6z"/>
			<path class="st4" d="M645.3,286.1c0,0,5.2,10.1,12-1.1L645.3,286.1z"/>
			<g>
				<g>
					<path class="st24" d="M680.5,279.6c3.1,1.9,7.6,1.8,10.6-0.2c3-2,5-5.7,5-9.6c0-3.4-1.7-6.9-4.6-8.3s-7.1-0.2-8.5,2.8
						L680.5,279.6z"/>
				</g>
			</g>
			<g>
				<path class="st18" d="M685.6,275.2c1.2-0.5,2.2-1.3,3.1-2.2c0.8-0.9,1.4-2,1.5-3.1c0.1-1.1-0.4-2.3-1.3-3.1
					c-0.9-0.8-2.1-1.3-3.4-1.6c1.3-0.1,2.7,0.1,3.9,0.9c1.2,0.8,1.9,2.3,1.8,3.7c-0.1,1.5-0.9,2.8-1.9,3.7
					C688.2,274.5,686.9,275,685.6,275.2z"/>
			</g>
			<path class="st18" d="M632,231.6c0,0,1.9,13,10.7,18.8c8.8,5.8,24.3,6.4,27,5.6c2.7-0.8-3.6-9.5-3.6-9.5s13.4,7.2,18.9,3.2
				C690.4,245.8,684.1,212.7,632,231.6z"/>
			<path class="st18" d="M682.9,237.4c0,0-7.7,17-6.2,21.7c1.3,4,10.1,2.2,10.1,2.2S696.1,243.1,682.9,237.4z"/>
		</g>
	</g>
	<g>
		<g>
			<g>
				<defs>
					<path id="SVGID_00000109023022152763147100000004027412996668019884_" d="M310.4,605.3h82.8c78.8,0,142.6-63.8,142.6-142.6l0,0
						c0-78.8-63.8-142.6-142.6-142.6h-82.8c-78.8,0-142.6,63.8-142.6,142.6l0,0C167.8,541.5,231.7,605.3,310.4,605.3z"/>
				</defs>
				<clipPath id="SVGID_00000147207131027878871260000007446298628093832339_">
					<use xlink:href="#SVGID_00000109023022152763147100000004027412996668019884_"  style="overflow:visible;"/>
				</clipPath>
				<g style="clip-path:url(#SVGID_00000147207131027878871260000007446298628093832339_);">
					<path class="st16" d="M283,479.5c0,0-40.3,20.6-61.4,126.1h159.8l16-126.1L283,479.5L283,479.5z"/>
					<line class="st19" x1="272.7" y1="487.9" x2="396.3" y2="487.9"/>
					<line class="st17" x1="329.8" y1="553.4" x2="322.8" y2="605.6"/>
					<path class="st17" d="M289.2,479.5c0,0-42,58.5-49.4,126.1"/>
					<path class="st18" d="M344.1,536.4c0,0-15,41.2-34.6,69.2h-8l12.3-51.1C313.8,554.5,335.5,546.4,344.1,536.4z"/>
					<path class="st19" d="M363.1,479.5c0,0-5.2,31.6-11.3,42.6c0,0,21-5.6,26.4-42.6"/>
				</g>
			</g>
		</g>
		<g>
			<path class="st18" d="M507.5,404.9c0,0,11.5,21.1-6.4,34.3C501.1,439.2,490.5,420.9,507.5,404.9z"/>
			<path class="st24" d="M552.4,414.6l5.1-0.8c0,0,4,7.1,6,7.1c2,0,2.5-7.1,1.2-9.1c-1.2-2-7.2-7.8-9.7-6.9c-2.5,0.9-29.6,9-29.6,9
				l2.2,20c3,2.7,8,2,8,2s-0.5-2.6,1.9-5.3C540,427.7,552.4,414.6,552.4,414.6z"/>
			<path class="st13" d="M369.3,314c0,0,31.4,0.8,34.7,4.1c3.3,3.3-19.1,89-19.1,98.9c0,5,15.4,34.1,19.4,40.6c4.1,6.6-7,22-7,22
				H261.2c0,0,30.4-133.1,38.2-144.2c7.8-11.1,30.5-18.6,43.3-20.8L369.3,314z"/>
			<path class="st6" d="M369.2,309c0,0,7.2,0.8,9,3.1c1.7,2.3-1.9,25.2-7.9,31.7l-11.8-8.5l-11.6,11.3c0,0-13.5-15.4-12.8-25.4
				c0.7-9.4,9.1-15.4,9.1-15.4L369.2,309z"/>
			<path class="st28" d="M226.2,347.3L266,494.5c0,0,77.2-6.1,97-35.9l-51.8-143.3C311.3,315.2,242.8,346,226.2,347.3z"/>
			<path class="st8" d="M242.7,355.2l47,145c0,0,76.8-9.9,95.1-40.6l-58.8-140.6C326.1,318.9,259.2,353,242.7,355.2z"/>
			<path class="st23" d="M365.6,218.4c0,0,7.6-8.5,18-8.5c7.8,0,22.6,19.3,24.6,34.4c2.5,18.4-7.8,40.7-45.3,30.8
				C314.8,262.4,347.6,226.9,365.6,218.4z"/>
			<g>
				<g>
					<path class="st24" d="M397.3,267.8c-0.1,2-0.3,3.9-0.7,5.8c-0.6,3.2-1.6,6.3-3,9.2c-3.6,7.5-9.9,13.3-18.8,14.3
						c-9.7,1.2-19.2-4.3-24.6-12.6c-9.8-15-12.3-43.4,5.1-53.6c1.9-1.1,3.9-1.9,6-2.4c9.6-2.1,19.9,2.9,26.5,10.6
						C394.5,247,397.7,257.5,397.3,267.8z"/>
				</g>
			</g>
			<path class="st29" d="M370.3,261.4c1.9-1.4,4.4-1.8,6.7-1.3"/>
			<path class="st29" d="M383.6,261.4c1.9-1.4,4.4-1.8,6.7-1.3"/>
			<g>
				<g>
					<path class="st24" d="M345.1,267.6l-2.3,47.8c-0.5,8.8,4.5,16.3,11.4,17.1l0,0c8,0.9,15.2-7.5,15.1-17.7l-0.1-44.6L345.1,267.6
						z"/>
					<g>
						<g>
							<path class="st18" d="M369.2,305.9l0-8.7c0,0-10.7-0.2-19-12.1C350.2,285.1,353.3,303.9,369.2,305.9z"/>
						</g>
					</g>
					<path class="st23" d="M351.8,206.5c-8.7,0.4-42.4,30.5-42.4,53.4c0,18.4,26.8,39.3,20.5,45.3s-28.5,25.3-28.5,39.3
						s39.6,11.5,40,21.4c0.4,9.9-8.1,14-8.1,14s25.2-4.1,22.6-20.6c-2.6-16.5-16.8-11.5-17.1-18.9c-0.3-7.4,34.2-20.4,5.5-59.3
						l2.1-16.5c0,0,19.4-2.4,27.2-20.3C381.4,226.2,364.3,205.9,351.8,206.5z"/>
				</g>
			</g>
			<g>
				<path class="st18" d="M376.4,266.4c0,1.1-0.9,2.1-2,2.1c-1.1,0-2.1-0.9-2.1-2c0-1.1,0.9-2.1,2-2.1
					C375.4,264.4,376.4,265.3,376.4,266.4z"/>
			</g>
			<g>
				<path class="st18" d="M389,266.1c0,1.1-0.9,2.1-2,2.1c-1.1,0-2.1-0.9-2.1-2c0-1.1,0.9-2.1,2-2.1C388,264,388.9,264.9,389,266.1z
					"/>
			</g>
			<g>
				<path class="st18" d="M382.2,274.4c0.7,0.8,1.6,1.1,2.6,1.4c0.5,0.1,1,0.3,1.5,0.4c0.3,0.1,0.5,0.2,0.8,0.4
					c0.1,0.1,0.3,0.3,0.4,0.6c0,0.3,0,0.4,0,0.6c-0.2,0.8-0.8,1.1-1.3,1.4c-0.5,0.2-1,0.4-1.6,0.5c-1,0.2-2.1,0.2-3.1,0.1
					c1-0.3,2-0.5,2.9-0.9c0.5-0.2,0.9-0.3,1.3-0.6c0.4-0.2,0.7-0.5,0.8-0.7c0,0,0-0.2,0-0.2c0,0,0,0,0,0c-0.1-0.1-0.3-0.2-0.5-0.3
					c-0.4-0.2-0.9-0.4-1.4-0.6C383.5,276.1,382.5,275.5,382.2,274.4z"/>
			</g>
			<path class="st26" d="M372.9,276.7c0.4,2.8-2.6,5.5-6.7,6c-4,0.5-7.6-1.3-8-4.1c-0.4-2.8,2.6-5.5,6.7-6
				C369,272.1,372.6,273.9,372.9,276.7z"/>
			<path class="st26" d="M396.6,273.6c-0.6,3.2-1.6,6.3-3,9.2c-2.5-1.4-3.9-3.7-3.4-5.8C390.9,274.8,393.5,273.5,396.6,273.6z"/>
			<path class="st4" d="M384.2,286.1c0,0-5.2,10.1-12-1.1L384.2,286.1z"/>
			<g>
				<g>
					<path class="st24" d="M349,279.6c-3.1,1.9-7.6,1.8-10.6-0.2c-3-2-5-5.7-5-9.6c0-3.4,1.7-6.9,4.6-8.3s7.1-0.2,8.5,2.8L349,279.6
						z"/>
				</g>
			</g>
			<g>
				<path class="st18" d="M343.9,275.2c-1.3-0.2-2.6-0.7-3.6-1.6c-1-0.9-1.8-2.2-1.9-3.7c-0.1-1.5,0.7-2.9,1.8-3.7
					c1.2-0.8,2.6-1.1,3.9-0.9c-1.3,0.3-2.5,0.8-3.4,1.6c-0.9,0.8-1.4,1.9-1.3,3.1c0.1,1.1,0.6,2.2,1.5,3.1
					C341.7,273.9,342.8,274.6,343.9,275.2z"/>
			</g>
			<path class="st18" d="M276,415c0,0,24.9,21.9,13.2,34.6C289.2,449.6,265.3,438.1,276,415z"/>
			<path class="st24" d="M337.8,393.5l-65.1,27.1c0,0,3.8,19.8,14.3,25.8l61.6-35.9L337.8,393.5z"/>
			<path class="st24" d="M525.4,414l-70.4-4.5c0,0-5.3,19.4,1.4,29.5l71.1-5L525.4,414z"/>
			<path class="st13" d="M238.2,391.7c0,0-41.4,44.2-16.7,62.4c11.3,8.3,67.6-4.4,67.6-4.4S271.6,424.9,276,415l-30,4.7L238.2,391.7
				z"/>
			<path class="st24" d="M337.8,393.5c0,0,4.6-7.1,9-11c0.9-0.8,15.7-7.5,16.6-6.3c0.9,1.2-0.6,3.9-1.9,4.9c0,0,1.2,2.4,0.8,3
				c-0.3,0.6-0.6,2.7-0.6,2.7s1.9,0.2,1.6,1.5c-0.3,1.3-0.6,2.7-0.6,2.7s2.5,1.5,2.8,2.3c0.8,2.6-5.4,14.1-17.2,17.3L337.8,393.5z"
				/>
			<line class="st19" x1="246" y1="419.8" x2="233.5" y2="421.9"/>
			<path class="st13" d="M403.9,318c9.7,0.5,35.2,86.8,35.2,86.8h68.4c0,0-6.4,17-6.4,34.3c0,0-67.8,0-77.7,0.8
				c-9.9,0.8-33.3-47.9-39.9-68.9C378.6,355,387.7,317.2,403.9,318z"/>
			<path class="st18" d="M390.3,388.8c0,0,15.7-9.7,14.9-31.9c0,0,9.9,31.6-4.7,53.7L390.3,388.8z"/>
			<path class="st19" d="M384.2,419.8c0,0-8.3-19.4-7.8-21.4c0.5-2,6.3,0.7,5.8,3.1"/>
			<line class="st19" x1="439.1" y1="404.9" x2="432.7" y2="415"/>
			<path class="st19" d="M264.4,416.9c0,0-1.8,21.9,8.2,36"/>
			<path class="st19" d="M493.6,404.9c0,0-6.7,19.3-3.4,34.1"/>
		</g>
	</g>
	<g>
		<g>
			<g>
				<polygon class="st30" points="708.4,279.8 722,319.8 793.5,319.8 779.9,279.8 				"/>
			</g>
			<polygon class="st6" points="723,271.6 736.5,311.6 808.1,311.6 794.5,271.6 			"/>
			<polygon class="st6" points="785.4,328.6 808.1,311.6 785.4,311.6 			"/>
		</g>
	</g>
	<rect x="784.4" y="293.3" class="st31" width="13.6" height="3.2"/>
	<rect x="774" y="301.3" class="st31" width="23.9" height="3.2"/>
	<ellipse class="st32" cx="258.7" cy="229.7" rx="41.8" ry="41.8"/>
	
		<ellipse transform="matrix(7.088901e-02 -0.9975 0.9975 7.088901e-02 5.4746 449.7162)" class="st14" cx="244.1" cy="221.9" rx="41.8" ry="41.8"/>
	<polygon class="st14" points="258.5,256.9 288.1,270.9 275.2,240.7 	"/>
	<g>
		<path class="st26" d="M244.1,243.7c-12,0-21.8-9.7-21.8-21.8c0-12,9.7-21.8,21.8-21.8c8.3,0,15.5,4.6,19.2,11.4
			c1.7,3.1,2.6,6.6,2.6,10.4C265.9,234,256.2,243.7,244.1,243.7z"/>
		<path class="st31" d="M244.1,221.9v-21.8c8.3,0,15.5,4.6,19.2,11.4L244.1,221.9z"/>
		<path class="st8" d="M265.9,221.9h-21.8l19.2-10.4C265,214.6,265.9,218.2,265.9,221.9z"/>
	</g>
</g>
</svg>
